#define b69429a5c51e4a23e044a3ba357690c37pI2MNFTsgujXL7c_width 64
#define b69429a5c51e4a23e044a3ba357690c37pI2MNFTsgujXL7c_height 64
static char b69429a5c51e4a23e044a3ba357690c37pI2MNFTsgujXL7c_bits[] = {
  0x00, 0x00, 0x00, 0xF8, 0x0E, 0x00, 0x00, 0x00, 0x00, 0x00, 0x80, 0xFF, 
  0xFF, 0x01, 0x00, 0x00, 0x00, 0x00, 0xF0, 0xFF, 0xFF, 0x0F, 0x00, 0x00, 
  0x00, 0x00, 0xFC, 0xFF, 0xFF, 0x3F, 0x00, 0x00, 0x00, 0x00, 0xFF, 0x7F, 
  0xFE, 0xFF, 0x00, 0x00, 0x00, 0xC0, 0xFF, 0x01, 0x80, 0xFF, 0x03, 0x00, 
  0x00, 0xE0, 0x3F, 0x00, 0x00, 0xFC, 0x07, 0x00, 0x00, 0xF0, 0x0F, 0x00, 
  0x00, 0xF0, 0x0F, 0x00, 0x00, 0xF8, 0x03, 0x00, 0x00, 0xC0, 0x1F, 0x00, 
  0x00, 0xFE, 0x00, 0x00, 0x00, 0x00, 0x7F, 0x00, 0x00, 0x7E, 0x00, 0x00, 
  0x00, 0x00, 0x7E, 0x00, 0x00, 0x3F, 0x00, 0x00, 0x00, 0x00, 0xFC, 0x00, 
  0x80, 0x1F, 0x00, 0x00, 0x00, 0x00, 0xF8, 0x01, 0xC0, 0x0F, 0x00, 0x00, 
  0x00, 0x00, 0xF0, 0x03, 0xE0, 0x07, 0x00, 0x00, 0x00, 0x00, 0xE0, 0x07, 
  0xE0, 0x03, 0x00, 0x00, 0x00, 0x00, 0xC0, 0x07, 0xF0, 0x01, 0x00, 0x00, 
  0x00, 0x00, 0x80, 0x0F, 0xF0, 0x01, 0x00, 0x00, 0x00, 0x00, 0x80, 0x0F, 
  0xF8, 0x00, 0x00, 0x00, 0x00, 0x00, 0x00, 0x1F, 0xF8, 0x00, 0x00, 0x00, 
  0x00, 0x00, 0x00, 0x1F, 0x7C, 0x00, 0x00, 0x00, 0x00, 0x00, 0x00, 0x3E, 
  0x7C, 0x00, 0x00, 0x00, 0x00, 0x00, 0x00, 0x3E, 0x3C, 0x00, 0x00, 0x00, 
  0x00, 0x00, 0x00, 0x3C, 0x3E, 0x00, 0x00, 0x00, 0x00, 0x00, 0x00, 0x7C, 
  0x3E, 0x00, 0x00, 0x00, 0x00, 0x00, 0x00, 0x7C, 0x1E, 0x00, 0x00, 0x00, 
  0x00, 0x00, 0x00, 0x78, 0x1E, 0x00, 0x00, 0x00, 0x00, 0x00, 0x00, 0x78, 
  0x1F, 0x00, 0x0A, 0x80, 0x01, 0x18, 0x00, 0xF8, 0x1F, 0x80, 0x3F, 0xF0, 
  0x07, 0xFE, 0x00, 0xF8, 0x1F, 0xC0, 0x7F, 0x18, 0x0C, 0x83, 0x01, 0xF0, 
  0x0F, 0xC0, 0x7F, 0x08, 0x08, 0x01, 0x01, 0xF8, 0x1E, 0xE0, 0xFF, 0x0C, 
  0x98, 0x01, 0x03, 0xF8, 0x1F, 0xE0, 0xFF, 0x0C, 0x98, 0x01, 0x03, 0xF8, 
  0x0F, 0xE0, 0xFF, 0x04, 0x90, 0x00, 0x02, 0xF0, 0x1F, 0xE0, 0xFF, 0x0C, 
  0x98, 0x01, 0x03, 0xF8, 0x1F, 0xC0, 0x7F, 0x18, 0x0C, 0x83, 0x01, 0x78, 
  0x1E, 0x80, 0x7F, 0x30, 0x06, 0xC6, 0x00, 0xF8, 0x1E, 0x00, 0x1F, 0xE0, 
  0x03, 0x7E, 0x00, 0x78, 0x1E, 0x00, 0x00, 0x00, 0x00, 0x00, 0x00, 0x78, 
  0x3E, 0x00, 0x00, 0x00, 0x00, 0x00, 0x00, 0x7C, 0x3E, 0x00, 0x00, 0x00, 
  0x00, 0x00, 0x00, 0x7C, 0x3C, 0x00, 0x00, 0x00, 0x00, 0x00, 0x00, 0x3C, 
  0x7C, 0x00, 0x00, 0x00, 0x00, 0x00, 0x00, 0x3E, 0x7C, 0x00, 0x00, 0x00, 
  0x00, 0x00, 0x00, 0x3E, 0xF8, 0x00, 0x00, 0x00, 0x00, 0x00, 0x00, 0x1F, 
  0xF8, 0x00, 0x00, 0x00, 0x00, 0x00, 0x00, 0x1F, 0xF0, 0x01, 0x00, 0x00, 
  0x00, 0x00, 0x80, 0x0F, 0xF0, 0x01, 0x00, 0x00, 0x00, 0x00, 0x80, 0x0F, 
  0xE0, 0x03, 0x00, 0x00, 0x00, 0x00, 0xC0, 0x07, 0xE0, 0x07, 0x00, 0x00, 
  0x00, 0x00, 0xE0, 0x07, 0xC0, 0x0F, 0x00, 0x00, 0x00, 0x00, 0xF0, 0x03, 
  0x80, 0x1F, 0x00, 0x00, 0x00, 0x00, 0xF8, 0x01, 0x00, 0x3F, 0x00, 0x00, 
  0x00, 0x00, 0xFC, 0x00, 0x00, 0x7F, 0x00, 0x00, 0x00, 0x00, 0xFE, 0x00, 
  0x00, 0xFC, 0x00, 0x00, 0x00, 0x00, 0x3F, 0x00, 0x00, 0xFC, 0x03, 0x00, 
  0x00, 0xC0, 0x3F, 0x00, 0x00, 0xF0, 0x0F, 0x00, 0x00, 0xF0, 0x0F, 0x00, 
  0x00, 0xE0, 0x3F, 0x00, 0x00, 0xFC, 0x07, 0x00, 0x00, 0xC0, 0xFF, 0x01, 
  0x80, 0xFF, 0x03, 0x00, 0x00, 0x00, 0xFF, 0xBF, 0xFD, 0xFF, 0x00, 0x00, 
  0x00, 0x00, 0xFC, 0xFF, 0xFF, 0x3F, 0x00, 0x00, 0x00, 0x00, 0xF0, 0xFF, 
  0xFF, 0x0F, 0x00, 0x00, 0x00, 0x00, 0x80, 0xFF, 0xFF, 0x01, 0x00, 0x00, 
  0x00, 0x00, 0x00, 0xE8, 0x2F, 0x00, 0x00, 0x00, };
